name rise35.5848peak51.9257fall54.8793.mot
datacolumns 19
datarows 17
range 7.38330100000000 7.40996900000000
endheader
time	ground_force1_vx	ground_force1_vy	ground_force1_vz	ground_force1_px	ground_force1_py	ground_force1_pz	ground_force2_vx	ground_force2_vy	ground_force2_vz	ground_force2_px	ground_force2_py	ground_force2_pz	ground_torque1_x	ground_torque1_y	ground_torque1_z	ground_torque2_x	ground_torque2_y	ground_torque2_z	
7.38330100000000	-6.10328600000000	44.41695900000000	-9.90867300000000	0.29620000000000	0.00000000000000	0.09700500000000	-45.65828400000000	806.94367399999999	-54.06166500000000	0.08374600000000	0.00000000000000	-0.09343400000000	0.00000000000000	-5.44689600000000	0.00000000000000	0.00000000000000	-16.37449300000000	0.00000000000000	
7.38497000000000	-6.64894000000000	50.67672200000000	-10.90179700000000	0.29905700000000	0.00000000000000	0.09792900000000	-46.21588600000000	804.53614200000004	-53.64591400000000	0.08306100000000	0.00000000000000	-0.09328000000000	0.00000000000000	-6.02466700000000	0.00000000000000	0.00000000000000	-16.32244800000000	0.00000000000000	
7.38663800000000	-7.09744300000000	56.85264500000000	-11.77114100000000	0.30163300000000	0.00000000000000	0.09880100000000	-46.79207600000000	802.01972599999999	-53.21387300000000	0.08237000000000	0.00000000000000	-0.09312200000000	0.00000000000000	-6.53857900000000	0.00000000000000	0.00000000000000	-16.27426600000000	0.00000000000000	
7.38830300000000	-7.43779500000000	62.88271100000000	-12.50149500000000	0.30396800000000	0.00000000000000	0.09962500000000	-47.38692200000000	799.39277400000003	-52.76572800000000	0.08167400000000	0.00000000000000	-0.09296200000000	0.00000000000000	-6.97978700000000	0.00000000000000	0.00000000000000	-16.23004800000000	0.00000000000000	
7.38996700000000	-7.66424600000000	68.72994900000000	-13.08564000000000	0.30609800000000	0.00000000000000	0.10040800000000	-48.00039900000000	796.65354100000002	-52.30167000000000	0.08097400000000	0.00000000000000	-0.09279800000000	0.00000000000000	-7.34397800000000	0.00000000000000	0.00000000000000	-16.18987600000000	0.00000000000000	
7.39163100000000	-7.77593600000000	74.38174100000001	-13.52376600000000	0.30805100000000	0.00000000000000	0.10115200000000	-48.63238300000000	793.80019000000004	-51.82190100000000	0.08027000000000	0.00000000000000	-0.09263200000000	0.00000000000000	-7.63107200000000	0.00000000000000	0.00000000000000	-16.15380900000000	0.00000000000000	
7.39330300000000	-7.77618900000000	79.84725200000000	-13.82238700000000	0.30985300000000	0.00000000000000	0.10186200000000	-49.28264600000000	790.83079799999996	-51.32663200000000	0.07956000000000	0.00000000000000	-0.09246200000000	0.00000000000000	-7.84462100000000	0.00000000000000	0.00000000000000	-16.12188400000000	0.00000000000000	
7.39496700000000	-7.67160300000000	85.15349900000000	-13.99291900000000	0.31152500000000	0.00000000000000	0.10254000000000	-49.95085800000000	787.74335799999994	-50.81608000000000	0.07884700000000	0.00000000000000	-0.09229000000000	0.00000000000000	-7.99101300000000	0.00000000000000	0.00000000000000	-16.09411800000000	0.00000000000000	
7.39663300000000	-7.47102900000000	90.34064100000001	-14.05010200000000	0.31308300000000	0.00000000000000	0.10318900000000	-50.63658100000000	784.53578700000003	-50.29047400000000	0.07813000000000	0.00000000000000	-0.09211500000000	0.00000000000000	-8.07858300000000	0.00000000000000	0.00000000000000	-16.07050200000000	0.00000000000000	
7.39830300000000	-7.18455400000000	95.45699300000000	-14.01043000000000	0.31454300000000	0.00000000000000	0.10381100000000	-51.33926800000000	781.20593099999996	-49.75005200000000	0.07740900000000	0.00000000000000	-0.09193800000000	0.00000000000000	-8.11670600000000	0.00000000000000	0.00000000000000	-16.05100400000000	0.00000000000000	
7.39996800000000	-6.82256600000000	100.55424499999999	-13.89070100000000	0.31591800000000	0.00000000000000	0.10440900000000	-52.05826300000000	777.75157300000001	-49.19506000000000	0.07668400000000	0.00000000000000	-0.09175700000000	0.00000000000000	-8.11497700000000	0.00000000000000	0.00000000000000	-16.03557100000000	0.00000000000000	
7.40163200000000	-6.39496000000000	105.68321100000000	-13.70679300000000	0.31721700000000	0.00000000000000	0.10498300000000	-52.79279600000000	774.17044099999998	-48.62575700000000	0.07595700000000	0.00000000000000	-0.09157400000000	0.00000000000000	-8.08249900000000	0.00000000000000	0.00000000000000	-16.02412300000000	0.00000000000000	
7.40332000000000	-5.91052900000000	110.89035100000000	-13.47272200000000	0.31845100000000	0.00000000000000	0.10553500000000	-53.54198700000000	770.46021599999995	-48.04240900000000	0.07522700000000	0.00000000000000	-0.09138800000000	0.00000000000000	-8.02733700000000	0.00000000000000	0.00000000000000	-16.01655800000000	0.00000000000000	
7.40496300000000	-5.37654600000000	116.21521700000000	-13.20000300000000	0.31962700000000	0.00000000000000	0.10606800000000	-54.30484400000000	766.61854100000005	-47.44529800000000	0.07449500000000	0.00000000000000	-0.09120000000000	0.00000000000000	-7.95614100000000	0.00000000000000	0.00000000000000	-16.01274900000000	0.00000000000000	
7.40663400000000	-4.79855000000000	121.68883500000000	-12.89731000000000	0.32075000000000	0.00000000000000	0.10658100000000	-55.08025900000000	762.64303399999994	-46.83471200000000	0.07376100000000	0.00000000000000	-0.09100900000000	0.00000000000000	-7.87394500000000	0.00000000000000	0.00000000000000	-16.01254400000000	0.00000000000000	
7.40830500000000	-4.18029200000000	127.33298900000000	-12.57041000000000	0.32182800000000	0.00000000000000	0.10707700000000	-55.86701600000000	758.53129500000000	-46.21095500000000	0.07302600000000	0.00000000000000	-0.09081500000000	0.00000000000000	-7.78411600000000	0.00000000000000	0.00000000000000	-16.01577000000000	0.00000000000000	
7.40996900000000	-3.52384600000000	133.16029000000000	-12.22232300000000	0.32286300000000	0.00000000000000	0.10755500000000	-56.66378500000000	754.28092100000003	-45.57434100000000	0.07229000000000	0.00000000000000	-0.09061900000000	0.00000000000000	-7.68844200000000	0.00000000000000	0.00000000000000	-16.02222700000000	0.00000000000000	
